<svg width="30" height="30" viewBox="0 0 30 30" fill="none" xmlns="http://www.w3.org/2000/svg">
<g clip-path="url(#clip0_839_4773)">
<path d="M0 0C9.9 0 19.8 0 30 0C30 9.9 30 19.8 30 30C20.1 30 10.2 30 0 30C0 20.1 0 10.2 0 0Z" fill="#36C2CF" style="fill:#36C2CF;fill:color(display-p3 0.2118 0.7608 0.8118);fill-opacity:1;"/>
<path d="M16.0377 4.00013C16.1187 4.0145 16.2 4.02698 16.2814 4.03928C16.7722 4.11556 17.2307 4.24967 17.6953 4.42369C17.7194 4.4327 17.7436 4.44172 17.7685 4.45101C17.9676 4.52791 18.1464 4.61993 18.3398 4.71666C18.3398 5.97349 18.3398 7.23033 18.3398 8.52525C18.2239 8.42588 18.1129 8.32937 18.0029 8.22496C17.8331 8.07166 17.6477 7.94796 17.4548 7.82602C17.4085 7.79673 17.3625 7.7669 17.3166 7.73698C16.891 7.47212 16.3954 7.31083 15.9082 7.20323C15.8868 7.19828 15.8655 7.19333 15.8434 7.18824C14.7083 6.93532 13.4958 7.21034 12.5127 7.80084C12.431 7.85403 12.3528 7.90923 12.2754 7.96861C12.2381 7.99688 12.2381 7.99688 12.2 8.02571C12.0223 8.16421 11.8545 8.3134 11.6895 8.46666C11.6717 8.48278 11.654 8.49891 11.6358 8.51552C11.0324 9.08781 10.6283 9.91761 10.459 10.7225C10.4514 10.7563 10.4439 10.7901 10.4361 10.825C10.3716 11.1265 10.3557 11.4182 10.3583 11.7259C10.3584 11.7616 10.3584 11.7616 10.3586 11.798C10.361 12.1641 10.3817 12.5088 10.4883 12.8612C10.4965 12.8891 10.5046 12.9169 10.5131 12.9456C10.7117 13.6113 10.9994 14.2073 11.4551 14.7362C11.4907 14.7777 11.4907 14.7777 11.5269 14.82C12.3002 15.7021 13.4221 16.2471 14.5898 16.3475C15.9524 16.4178 17.1695 15.9783 18.1781 15.0693C18.7138 14.5652 19.0838 13.96 19.3359 13.2713C19.3428 13.2527 19.3497 13.2341 19.3569 13.2149C19.5646 12.6424 19.6172 12.0516 19.6156 11.4472C19.6159 11.3821 19.6162 11.3171 19.6165 11.252C19.6173 11.0778 19.6174 10.9036 19.6174 10.7294C19.6175 10.5464 19.6183 10.3635 19.6189 10.1805C19.62 9.85469 19.6207 9.52886 19.621 9.20303C19.6214 8.90744 19.622 8.61186 19.6228 8.31627C19.6229 8.29676 19.6229 8.27725 19.623 8.25714C19.6233 8.15923 19.6236 8.06131 19.6239 7.9634C19.6263 7.15459 19.6279 6.34578 19.6289 5.53697C19.6663 5.56477 19.7036 5.59261 19.7409 5.62047C19.7617 5.63598 19.7825 5.65148 19.804 5.66745C20.268 6.02189 20.6916 6.47287 21.0352 6.94322C21.0603 6.97694 21.0854 7.01066 21.1106 7.04438C21.2874 7.28429 21.4457 7.5331 21.5918 7.79283C21.6045 7.81544 21.6173 7.83806 21.6304 7.86136C22.7557 9.88297 22.7457 12.1892 22.1279 14.3693C22.0802 14.532 22.0269 14.6927 21.9727 14.8534C21.9632 14.8819 21.9537 14.9105 21.9439 14.9399C21.7977 15.3804 21.6354 15.811 21.4511 16.2369C21.4168 16.3165 21.3831 16.3963 21.3495 16.4763C21.329 16.5243 21.3084 16.5723 21.2878 16.6203C21.2742 16.6529 21.2742 16.6529 21.2604 16.6861C21.1985 16.8276 21.1515 16.8979 21.0088 16.9562C20.9387 16.9825 20.8681 17.0067 20.7971 17.0305C20.7579 17.0439 20.7579 17.0439 20.7178 17.0575C20.6639 17.0758 20.6099 17.0941 20.5559 17.1123C20.4865 17.1358 20.4174 17.1601 20.3484 17.1848C19.774 17.3875 19.179 17.5102 18.5766 17.5944C18.4903 17.6067 18.4044 17.6203 18.3183 17.6339C17.8916 17.6968 17.4685 17.7029 17.038 17.7025C17.0094 17.7025 16.9808 17.7025 16.9514 17.7024C16.3851 17.7011 15.8321 17.679 15.2728 17.5871C15.2487 17.5833 15.2247 17.5794 15.1999 17.5754C14.7952 17.5098 14.3976 17.4299 14.0039 17.3143C13.9747 17.3058 13.9455 17.2973 13.9154 17.2885C12.363 16.8281 10.9063 16.0523 9.69727 14.9706C9.66996 14.9465 9.64266 14.9224 9.61452 14.8977C9.21578 14.5401 8.82429 14.1641 8.49609 13.7401C8.44981 13.6857 8.40342 13.6314 8.35693 13.5771C8.20322 13.3923 8.05983 13.2016 7.924 13.0033C7.8574 12.9068 7.78681 12.8212 7.70679 12.7355C7.2583 12.2143 7.35939 11.4835 7.40466 10.8379C7.42421 10.612 7.45968 10.3888 7.5 10.1659C7.50533 10.1356 7.51065 10.1053 7.51614 10.0741C7.8422 8.33745 8.83929 6.64029 10.2539 5.56627C10.27 5.5539 10.2862 5.54154 10.3028 5.5288C10.5786 5.31842 10.8636 5.12759 11.1621 4.95103C11.1839 4.93804 11.2057 4.92505 11.2281 4.91166C12.016 4.44591 12.8783 4.16257 13.7809 4.02589C13.8499 4.01474 13.9179 4.00152 13.9863 3.98698C14.6415 3.85363 15.3821 3.88149 16.0377 4.00013Z" fill="#FEFEFE" style="fill:#FEFEFE;fill:color(display-p3 0.9958 0.9958 0.9958);fill-opacity:1;"/>
<path d="M15.8496 8.37794C15.8802 8.38667 15.8802 8.38667 15.9114 8.39558C16.7997 8.65232 17.5331 9.21568 17.9933 10.02C18.4445 10.843 18.5739 11.776 18.3105 12.6846C18.1651 13.1719 17.9416 13.5884 17.6074 13.9736C17.587 13.998 17.5666 14.0223 17.5455 14.0473C17.0025 14.6762 16.1844 15.1084 15.3516 15.1748C14.9336 15.1933 14.5276 15.1913 14.1211 15.0869C14.0871 15.0791 14.0531 15.0713 14.0181 15.0632C13.1645 14.8479 12.4379 14.2351 11.9853 13.4939C11.791 13.1643 11.6647 12.8207 11.5723 12.4502C11.5614 12.4077 11.5614 12.4077 11.5503 12.3643C11.3756 11.5286 11.5784 10.5965 12.032 9.88307C12.5538 9.10529 13.3114 8.53613 14.2354 8.33526C14.7521 8.24468 15.344 8.22654 15.8496 8.37794Z" fill="#FEFEFE" style="fill:#FEFEFE;fill:color(display-p3 0.9958 0.9958 0.9958);fill-opacity:1;"/>
<path d="M7.5 12.4219C7.51934 12.4605 7.53867 12.4992 7.55859 12.5391C7.5876 12.5391 7.6166 12.5391 7.64648 12.5391C7.69268 12.5998 7.73276 12.6594 7.77283 12.724C8.0509 13.1557 8.35876 13.5627 8.70117 13.9453C8.72557 13.973 8.74996 14.0006 8.7751 14.0291C9.12389 14.4176 9.48973 14.7965 9.90234 15.1172C9.95675 15.1635 10.0111 15.2099 10.0653 15.2563C11.2025 16.2021 12.5842 16.8877 14.0039 17.2852C14.0303 17.2927 14.0567 17.3003 14.0839 17.3081C14.4755 17.4193 14.8714 17.4934 15.2728 17.558C15.2959 17.5618 15.319 17.5656 15.3427 17.5695C15.9062 17.661 16.468 17.6729 17.038 17.6733C17.0675 17.6734 17.097 17.6734 17.1275 17.6734C17.5572 17.6731 17.9766 17.6591 18.4018 17.5915C18.4907 17.5774 18.5798 17.5648 18.669 17.5524C19.4313 17.4424 20.1964 17.2559 20.9095 16.9591C20.9848 16.9305 21.0431 16.929 21.123 16.9336C20.8391 17.5399 20.541 18.1358 20.2148 18.7207C20.2003 18.7469 20.1857 18.7731 20.1706 18.8001C19.621 19.7832 19.621 19.7832 19.4824 19.9219C19.4438 19.9282 19.4048 19.9327 19.3658 19.9365C19.3413 19.9389 19.3168 19.9414 19.2916 19.9438C19.2657 19.9463 19.2399 19.9487 19.2133 19.9512C19.1889 19.9536 19.1645 19.956 19.1394 19.9585C18.7844 19.9928 18.4311 20.0155 18.0743 20.0153C18.0367 20.0152 17.9991 20.0152 17.9603 20.0152C17.5582 20.0134 17.1584 19.9859 16.7578 19.9512C16.7326 19.9491 16.7074 19.9471 16.6815 19.945C16.281 19.9121 15.8903 19.8315 15.498 19.7461C15.4734 19.7409 15.4487 19.7356 15.4233 19.7302C15.0839 19.6572 14.7567 19.551 14.4287 19.4385C14.4088 19.4316 14.3888 19.4248 14.3683 19.4178C13.9917 19.2881 13.6279 19.1357 13.266 18.9697C13.2363 18.9562 13.2065 18.9428 13.1759 18.9289C12.9978 18.8474 12.8258 18.76 12.6562 18.6621C12.6327 18.6487 12.6091 18.6353 12.5849 18.6216C12.0305 18.3053 11.5114 17.9504 11.0156 17.5488C10.9888 17.5277 10.962 17.5065 10.9344 17.4847C10.4217 17.0758 9.92204 16.6038 9.52148 16.084C9.46511 16.0115 9.40974 15.9429 9.34467 15.8781C9.23153 15.7645 9.14457 15.629 9.05273 15.498C9.03109 15.4672 9.03109 15.4672 9.00902 15.4357C8.79629 15.1314 8.5928 14.8242 8.4082 14.502C8.3967 14.4821 8.3852 14.4622 8.37336 14.4417C8.08726 13.9458 7.84622 13.4365 7.64282 12.9016C7.63561 12.8827 7.62839 12.8638 7.62096 12.8443C7.5 12.5259 7.5 12.5259 7.5 12.4219Z" fill="#1FBDCC" style="fill:#1FBDCC;fill:color(display-p3 0.1216 0.7412 0.8000);fill-opacity:1;"/>
<path d="M7.5 12.4219C7.55953 12.4977 7.60695 12.571 7.6482 12.6581C7.65933 12.6811 7.67045 12.7042 7.68192 12.7279C7.69379 12.7526 7.70566 12.7773 7.7179 12.8027C8.10685 13.5955 8.61495 14.3384 9.19922 15C9.22105 15.0247 9.24288 15.0495 9.26537 15.075C9.33068 15.1481 9.39673 15.2206 9.46289 15.293C9.48995 15.3231 9.51699 15.3532 9.54403 15.3834C9.74957 15.6111 9.9659 15.8219 10.1953 16.0254C10.2109 16.0394 10.2265 16.0534 10.2426 16.0678C11.9132 17.5602 14.0455 18.4746 16.2598 18.75C16.2998 18.7552 16.2998 18.7552 16.3407 18.7605C17.5726 18.9154 18.9309 18.844 20.1256 18.505C20.2136 18.4866 20.2489 18.4908 20.332 18.5156C20.1418 18.8583 19.949 19.1987 19.7424 19.5319C19.7265 19.5576 19.7106 19.5833 19.6942 19.6098C19.611 19.7428 19.611 19.7428 19.5703 19.8047C19.5567 19.8261 19.5431 19.8474 19.5291 19.8695C19.4718 19.9338 19.4448 19.9386 19.3601 19.9451C19.3358 19.9472 19.3115 19.9494 19.2864 19.9516C19.2484 19.9541 19.2484 19.9541 19.2096 19.9567C19.1734 19.9597 19.1734 19.9597 19.1365 19.9628C19.0565 19.9693 18.9765 19.9749 18.8965 19.9805C18.8646 19.983 18.8328 19.9856 18.7999 19.9882C18.5578 20.0072 18.3172 20.0154 18.0743 20.0153C18.0367 20.0152 17.9991 20.0152 17.9603 20.0152C17.5582 20.0134 17.1584 19.9859 16.7578 19.9512C16.7326 19.9491 16.7074 19.9471 16.6815 19.945C16.281 19.9121 15.8903 19.8315 15.498 19.7461C15.4734 19.7409 15.4487 19.7356 15.4233 19.7302C15.0839 19.6572 14.7567 19.551 14.4287 19.4385C14.4088 19.4316 14.3888 19.4248 14.3683 19.4178C13.9917 19.2881 13.6279 19.1357 13.266 18.9697C13.2363 18.9562 13.2065 18.9428 13.1759 18.9289C12.9978 18.8474 12.8258 18.76 12.6562 18.6621C12.6327 18.6487 12.6091 18.6353 12.5849 18.6216C12.0305 18.3053 11.5114 17.9504 11.0156 17.5488C10.9888 17.5277 10.962 17.5065 10.9344 17.4847C10.4217 17.0758 9.92204 16.6038 9.52148 16.084C9.46511 16.0115 9.40974 15.9429 9.34467 15.8781C9.23153 15.7645 9.14457 15.629 9.05273 15.498C9.03109 15.4672 9.03109 15.4672 9.00902 15.4357C8.79629 15.1314 8.5928 14.8242 8.4082 14.502C8.3967 14.4821 8.3852 14.4622 8.37336 14.4417C8.08726 13.9458 7.84622 13.4365 7.64282 12.9016C7.63561 12.8827 7.62839 12.8638 7.62096 12.8443C7.5 12.5259 7.5 12.5259 7.5 12.4219Z" fill="#259DA8" style="fill:#259DA8;fill:color(display-p3 0.1451 0.6157 0.6588);fill-opacity:1;"/>
<path d="M15.4102 20.5371C15.4285 20.584 15.4285 20.584 15.4472 20.6319C15.4936 20.7503 15.5401 20.8687 15.5866 20.987C15.6066 21.0378 15.6265 21.0886 15.6464 21.1394C15.6753 21.2133 15.7044 21.2872 15.7335 21.3611C15.7431 21.3855 15.7527 21.4099 15.7626 21.4351C15.8254 21.5934 15.893 21.7489 15.9631 21.904C16.0359 22.0666 16.0904 22.2201 16.1114 22.3975C16.1147 22.4203 16.1179 22.4431 16.1212 22.4666C16.1502 22.6925 16.151 22.9171 16.1426 23.1445C16.064 23.1657 15.9884 23.1796 15.9074 23.1874C15.8845 23.1897 15.8616 23.1919 15.838 23.1942C15.8135 23.1966 15.7889 23.1989 15.7635 23.2013C15.7378 23.2039 15.712 23.2064 15.6854 23.2091C15.5512 23.2224 15.4171 23.2343 15.2826 23.2441C15.0298 23.2633 14.7871 23.2912 14.5422 23.3588C14.5222 23.3643 14.5021 23.3698 14.4814 23.3755C14.3051 23.4281 14.1406 23.5054 13.9746 23.584C13.7718 23.2165 13.571 22.8488 13.3887 22.4707C13.3798 22.4524 13.371 22.4341 13.3618 22.4153C13.2622 22.2088 13.1687 22.0004 13.0829 21.7877C13.0753 21.7689 13.0677 21.7502 13.0599 21.7308C13.0078 21.5992 13.0078 21.5992 13.0078 21.5332C13.0604 21.5107 13.113 21.4881 13.1656 21.4656C13.1995 21.451 13.2334 21.4365 13.2683 21.4215C13.3428 21.3896 13.4172 21.3578 13.4917 21.326C13.667 21.251 13.8421 21.1757 14.0165 21.0986C14.0446 21.0862 14.0726 21.0739 14.1016 21.0612C14.154 21.0381 14.2063 21.0149 14.2584 20.9913C14.2817 20.9811 14.305 20.9709 14.329 20.9604C14.3592 20.947 14.3592 20.947 14.3899 20.9333C14.4434 20.918 14.4434 20.918 14.5312 20.9473C14.568 21.0089 14.5992 21.0682 14.6296 21.1329C14.6385 21.1515 14.6475 21.1701 14.6568 21.1893C14.6757 21.2287 14.6945 21.2681 14.7131 21.3076C14.7417 21.3681 14.7708 21.4284 14.7999 21.4886C14.8182 21.5269 14.8365 21.5652 14.8548 21.6035C14.8635 21.6215 14.8722 21.6395 14.8811 21.6581C14.9194 21.7398 14.9414 21.7933 14.9414 21.8848C14.7384 21.9573 14.7384 21.9573 14.5312 22.0312C14.5312 22.0893 14.5312 22.1473 14.5312 22.207C14.6833 22.261 14.803 22.2027 14.9469 22.1503C14.9943 22.1335 15.0417 22.1167 15.0891 22.1C15.11 22.0925 15.1309 22.0849 15.1523 22.0771C15.2051 22.0605 15.2051 22.0605 15.2637 22.0605C15.2771 21.9044 15.2317 21.7962 15.1622 21.6602C15.1518 21.6393 15.1415 21.6184 15.1308 21.5968C15.0979 21.5303 15.0646 21.464 15.0311 21.3977C14.9979 21.3312 14.9647 21.2646 14.9317 21.198C14.9112 21.1566 14.8905 21.1153 14.8697 21.0741C14.8249 20.9844 14.7834 20.9001 14.7656 20.8008C15.2853 20.5371 15.2853 20.5371 15.4102 20.5371Z" fill="#FDFEFE" style="fill:#FDFEFE;fill:color(display-p3 0.9922 0.9961 0.9961);fill-opacity:1;"/>
<path d="M9.14062 15.5566C9.18377 15.6096 9.18377 15.6096 9.23035 15.6866C9.24863 15.7165 9.2669 15.7464 9.28574 15.7772C9.32635 15.8456 9.36616 15.9144 9.40567 15.9834C9.55897 16.2502 9.72341 16.5079 9.89502 16.7633C10.2247 17.2543 10.5412 17.7525 10.849 18.2574C10.8657 18.2847 10.8657 18.2847 10.8827 18.3125C10.9141 18.3641 10.9455 18.4158 10.9768 18.4674C10.9949 18.4972 11.013 18.5271 11.0317 18.5578C11.0742 18.6328 11.0742 18.6328 11.1035 18.7207C11.0872 18.7251 11.0708 18.7295 11.054 18.734C10.7387 18.8197 10.4336 18.9099 10.1348 19.0429C10.0429 19.0743 10.0183 19.0812 9.93164 19.043C9.88321 18.977 9.88321 18.977 9.83517 18.8882C9.80786 18.8384 9.80786 18.8384 9.77999 18.7875C9.76033 18.7506 9.74069 18.7137 9.72107 18.6768C9.70038 18.6384 9.67967 18.6001 9.65894 18.5618C9.60405 18.4599 9.54977 18.3578 9.49573 18.2555C9.46355 18.1946 9.43125 18.1338 9.39893 18.073C9.16626 17.6344 8.94372 17.1922 8.73962 16.7395C8.7314 16.7213 8.72319 16.7031 8.71472 16.6843C8.59531 16.4187 8.48536 16.1499 8.37891 15.8789C9.01664 15.5566 9.01664 15.5566 9.14062 15.5566Z" fill="#FDFEFE" style="fill:#FDFEFE;fill:color(display-p3 0.9922 0.9961 0.9961);fill-opacity:1;"/>
<path d="M16.875 23.613C16.7569 23.7733 16.6343 23.9287 16.507 24.0818C16.4707 24.1255 16.4345 24.1693 16.3982 24.2131C16.3709 24.2461 16.3709 24.2461 16.3431 24.2798C16.2752 24.3623 16.2079 24.4452 16.1407 24.5283C16.0783 24.6055 16.0155 24.6824 15.9527 24.7593C15.9098 24.8122 15.8674 24.8655 15.8251 24.9189C15.6278 25.1643 15.3572 25.4823 15.0293 25.5301C14.9414 25.5173 14.9414 25.5173 14.8846 25.4593C14.8096 25.3495 14.7593 25.2364 14.707 25.1145C14.5989 24.8679 14.4853 24.6245 14.3683 24.382C14.3526 24.3494 14.3368 24.3168 14.3206 24.2832C14.2835 24.2063 14.2463 24.1293 14.209 24.0525C14.5559 23.6956 15.1778 23.7156 15.6445 23.7009C15.6593 23.7619 15.674 23.8229 15.6885 23.884C15.6966 23.918 15.7048 23.952 15.7132 23.987C15.7324 24.0818 15.7324 24.0818 15.7324 24.1989C15.5874 24.2183 15.4424 24.2376 15.293 24.2575C15.2833 24.3155 15.2736 24.3736 15.2637 24.4333C15.2925 24.4686 15.2925 24.4686 15.3476 24.4665C15.6811 24.4803 15.6811 24.4803 15.9961 24.404C16.002 24.245 15.9874 24.1073 15.9503 23.9526C15.9344 23.8582 15.9356 23.7671 15.9375 23.6716C16.2528 23.6202 16.556 23.606 16.875 23.613Z" fill="#FBFEFE" style="fill:#FBFEFE;fill:color(display-p3 0.9843 0.9961 0.9961);fill-opacity:1;"/>
<path d="M11.3965 19.1889C11.977 20.3059 11.977 20.3059 12.1582 20.7124C12.1684 20.7352 12.1786 20.758 12.1891 20.7815C12.2196 20.8504 12.2495 20.9196 12.2791 20.9889C12.2881 21.0095 12.2971 21.0302 12.3064 21.0515C12.3646 21.1916 12.3646 21.1916 12.359 21.271C12.3234 21.3515 12.2809 21.3631 12.2007 21.3967C12.1735 21.4083 12.1464 21.4198 12.1184 21.4316C12.0899 21.4432 12.0613 21.4548 12.0319 21.4668C12.0036 21.4788 11.9754 21.4909 11.9463 21.5033C11.7354 21.5913 11.7354 21.5913 11.6016 21.5913C11.5516 21.5377 11.5516 21.5377 11.5022 21.4627C11.4748 21.4217 11.4748 21.4217 11.4468 21.3799C11.4278 21.3506 11.4088 21.3212 11.3892 21.291C11.3697 21.2616 11.3501 21.2322 11.33 21.2019C11.2914 21.1435 11.2528 21.085 11.2145 21.0264C11.1706 20.9597 11.1263 20.8936 11.0812 20.8277C10.9277 20.6029 10.9277 20.6029 10.9277 20.5366C10.9753 20.5169 11.0229 20.4974 11.0706 20.478C11.0971 20.4671 11.1236 20.4563 11.1509 20.445C11.2207 20.4194 11.2207 20.4194 11.2793 20.4194C11.2805 20.3608 11.2805 20.3022 11.2793 20.2436C11.2696 20.234 11.26 20.2243 11.25 20.2143C11.1028 20.2183 10.9751 20.2442 10.8398 20.3022C10.8012 20.3022 10.7625 20.3022 10.7227 20.3022C10.6726 20.2454 10.6726 20.2454 10.6236 20.1664C10.6057 20.138 10.5878 20.1095 10.5694 20.0803C10.5511 20.0502 10.5328 20.0201 10.5139 19.9891C10.4954 19.9596 10.4768 19.9301 10.4577 19.8997C10.3787 19.7726 10.3061 19.6519 10.2539 19.5112C10.5178 19.3773 10.79 19.2958 11.0742 19.2182C11.0916 19.2128 11.1089 19.2073 11.1268 19.2017C11.217 19.1839 11.3048 19.1872 11.3965 19.1889Z" fill="#FCFEFE" style="fill:#FCFEFE;fill:color(display-p3 0.9882 0.9961 0.9961);fill-opacity:1;"/>
<path d="M13.5352 19.1016C13.5894 19.1089 13.5894 19.1089 13.6523 19.1309C13.6898 19.1816 13.6898 19.1816 13.7221 19.2484C13.7406 19.2858 13.7406 19.2858 13.7594 19.324C13.7787 19.3647 13.7787 19.3647 13.7984 19.4062C13.8119 19.4339 13.8254 19.4616 13.8392 19.4902C13.8677 19.5488 13.896 19.6076 13.924 19.6665C13.9671 19.7567 14.0108 19.8466 14.0546 19.9365C14.0821 19.9935 14.1096 20.0505 14.1371 20.1075C14.1502 20.1345 14.1633 20.1615 14.1768 20.1893C14.1887 20.2145 14.2007 20.2396 14.213 20.2655C14.2235 20.2876 14.2341 20.3097 14.245 20.3324C14.2676 20.3906 14.2676 20.3906 14.2676 20.4785C14.1008 20.5521 13.9341 20.6256 13.7673 20.699C13.7106 20.7239 13.6539 20.7489 13.5973 20.7739C13.5156 20.81 13.4338 20.846 13.3521 20.8819C13.327 20.893 13.3019 20.9041 13.2761 20.9155C13.1296 20.9798 12.9824 21.039 12.832 21.0938C12.7644 20.9447 12.6972 20.7956 12.6302 20.6464C12.6073 20.5956 12.5844 20.5448 12.5613 20.4941C12.5283 20.4213 12.4956 20.3484 12.463 20.2755C12.4526 20.2527 12.4422 20.23 12.4314 20.2065C12.4069 20.1514 12.3849 20.0953 12.3633 20.0391C12.4126 19.9405 12.5259 19.927 12.6251 19.8925C12.6484 19.8842 12.6717 19.8759 12.6957 19.8673C12.7704 19.8407 12.8451 19.8145 12.9199 19.7882C12.9947 19.7618 13.0694 19.7353 13.1441 19.7088C13.1907 19.6923 13.2373 19.6758 13.2839 19.6595C13.3882 19.6289 13.3882 19.6289 13.4766 19.5703C13.4883 19.4915 13.4986 19.4132 13.5077 19.3341C13.5104 19.3119 13.513 19.2897 13.5158 19.2668C13.5223 19.2117 13.5288 19.1566 13.5352 19.1016Z" fill="#FCFEFE" style="fill:#FCFEFE;fill:color(display-p3 0.9882 0.9961 0.9961);fill-opacity:1;"/>
<path d="M17.9004 21.0635C17.9244 21.1752 17.9481 21.2869 17.9718 21.3986C17.9785 21.4299 17.9853 21.4613 17.9922 21.4935C18.0114 21.5844 18.0293 21.6755 18.0469 21.7667C18.0522 21.7911 18.0576 21.8156 18.0631 21.8408C18.0853 21.9642 18.0838 22.037 18.016 22.1448C17.9892 22.1804 17.9616 22.2155 17.9333 22.2501C17.9195 22.2682 17.9056 22.2863 17.8913 22.305C17.7999 22.4238 17.7999 22.4238 17.7539 22.4698C17.7039 22.4723 17.6537 22.4729 17.6036 22.4726C17.5733 22.4725 17.543 22.4725 17.5118 22.4724C17.4799 22.4721 17.448 22.4719 17.4152 22.4716C17.3672 22.4714 17.3672 22.4714 17.3182 22.4712C17.2388 22.4709 17.1594 22.4704 17.0801 22.4698C17.0736 22.4462 17.0671 22.4227 17.0604 22.3984C16.9708 22.1024 16.8415 21.8346 16.6996 21.5601C16.6769 21.5162 16.6769 21.5162 16.6538 21.4713C16.64 21.4449 16.6262 21.4186 16.612 21.3914C16.582 21.3272 16.582 21.3272 16.582 21.2686C16.7415 21.2392 16.901 21.21 17.0605 21.181C17.1148 21.1711 17.169 21.1612 17.2232 21.1512C17.3013 21.1368 17.3794 21.1226 17.4575 21.1084C17.4936 21.1017 17.4936 21.1017 17.5305 21.0948C17.6556 21.0723 17.7726 21.0585 17.9004 21.0635Z" fill="#FCFEFE" style="fill:#FCFEFE;fill:color(display-p3 0.9882 0.9961 0.9961);fill-opacity:1;"/>
<path d="M12.3047 18.427C12.3325 18.4387 12.3603 18.4503 12.3889 18.4624C12.7606 18.6533 12.9791 19.0404 13.125 19.4231C13.0057 19.4657 12.8863 19.508 12.7668 19.5499C12.7262 19.5642 12.6856 19.5786 12.645 19.5931C12.5867 19.6139 12.5283 19.6344 12.4698 19.6548C12.4347 19.6673 12.3996 19.6797 12.3634 19.6925C12.2754 19.7161 12.2754 19.7161 12.1875 19.6868C12.1422 19.6146 12.1422 19.6146 12.0943 19.5191C12.0857 19.5022 12.0771 19.4852 12.0682 19.4677C12.0405 19.4133 12.0133 19.3587 11.9861 19.3041C11.9503 19.2329 11.9143 19.1617 11.8783 19.0907C11.8612 19.0569 11.8441 19.0232 11.8265 18.9884C11.7844 18.9091 11.74 18.8338 11.6911 18.7585C11.6309 18.6614 11.6309 18.6614 11.6309 18.5735C11.7154 18.5373 11.8003 18.5022 11.8854 18.4673C11.9093 18.457 11.9332 18.4467 11.9579 18.4362C12.1747 18.3484 12.1747 18.3484 12.3047 18.427Z" fill="#FCFEFE" style="fill:#FCFEFE;fill:color(display-p3 0.9882 0.9961 0.9961);fill-opacity:1;"/>
<path d="M7.99805 13.7695C8.0631 13.8297 8.10492 13.8848 8.14419 13.9641C8.15502 13.9855 8.16585 14.0069 8.17701 14.0289C8.18865 14.0521 8.20029 14.0752 8.21228 14.0991C8.33053 14.3293 8.45836 14.5521 8.59314 14.7729C8.61032 14.8012 8.6275 14.8294 8.64519 14.8585C8.73684 15.0075 8.8318 15.152 8.93555 15.293C8.87519 15.3589 8.82257 15.398 8.74066 15.4333C8.72032 15.4421 8.69998 15.4509 8.67903 15.4601C8.65794 15.469 8.63685 15.4779 8.61512 15.4871C8.59414 15.4962 8.57316 15.5053 8.55154 15.5148C8.45544 15.5561 8.36393 15.5918 8.26172 15.6152C7.90913 14.644 7.90913 14.644 7.79847 14.2401C7.79121 14.214 7.78395 14.1879 7.77648 14.161C7.73055 13.9861 7.73055 13.9861 7.76368 13.8867C7.81781 13.8525 7.81781 13.8525 7.88269 13.8226C7.90418 13.8125 7.92567 13.8025 7.94781 13.7921C7.96439 13.7846 7.98097 13.7772 7.99805 13.7695Z" fill="#FBFDFE" style="fill:#FBFDFE;fill:color(display-p3 0.9843 0.9922 0.9961);fill-opacity:1;"/>
<path d="M16.3477 21.4152C16.3942 21.4761 16.3942 21.4761 16.4337 21.5564C16.4484 21.5858 16.463 21.6152 16.4781 21.6455C16.4931 21.6771 16.508 21.7086 16.5234 21.7411C16.5467 21.789 16.5467 21.789 16.5705 21.8378C16.683 22.0734 16.7738 22.307 16.8457 22.5578C16.865 22.6158 16.8844 22.6738 16.9043 22.7336C17.1073 22.7432 17.3104 22.7529 17.5195 22.7629C17.5002 22.8015 17.4809 22.8402 17.4609 22.88C17.4526 22.8983 17.4442 22.9165 17.4355 22.9353C17.3853 23.025 17.3463 23.0761 17.2452 23.1048C17.1505 23.1137 17.0581 23.115 16.9629 23.1144C16.9162 23.1148 16.8694 23.1151 16.8227 23.1156C16.6936 23.1164 16.5646 23.1157 16.4355 23.1144C16.4342 23.0972 16.4329 23.08 16.4316 23.0622C16.3906 22.539 16.3301 22.0868 16.1029 21.6087C16.0547 21.5031 16.0547 21.5031 16.0547 21.4445C16.1654 21.3907 16.2301 21.3749 16.3477 21.4152Z" fill="#F9FDFD" style="fill:#F9FDFD;fill:color(display-p3 0.9765 0.9922 0.9922);fill-opacity:1;"/>
<path d="M17.5195 20.0389C17.4864 20.0516 17.4534 20.0643 17.4193 20.0774C17.2953 20.125 17.1714 20.1726 17.0474 20.2202C16.994 20.2407 16.9406 20.2613 16.8872 20.2818C16.81 20.3114 16.7327 20.3411 16.6555 20.3708C16.632 20.3798 16.6085 20.3888 16.5843 20.3981C16.5386 20.4157 16.4929 20.4334 16.4474 20.4514C16.3971 20.4706 16.3464 20.4887 16.2955 20.506C16.2689 20.5154 16.2423 20.5248 16.2149 20.5345C16.1905 20.5427 16.1662 20.5509 16.1411 20.5594C16.0767 20.5917 16.0767 20.5917 16.0597 20.6684C16.0537 20.7558 16.0715 20.7984 16.1114 20.8757C16.1613 20.9733 16.1719 21.0078 16.1719 21.1229C16.0034 21.2108 16.0034 21.2108 15.9375 21.2108C15.8924 21.0962 15.848 20.9814 15.8038 20.8665C15.791 20.834 15.7782 20.8014 15.765 20.7679C15.753 20.7365 15.741 20.7052 15.7286 20.6729C15.7174 20.6441 15.7062 20.6152 15.6947 20.5855C15.6725 20.5028 15.6636 20.4664 15.7031 20.3905C15.7672 20.3526 15.7672 20.3526 15.8518 20.3201C15.8826 20.308 15.9135 20.2959 15.9452 20.2834C15.9783 20.271 16.0114 20.2586 16.0455 20.2458C16.096 20.2266 16.096 20.2266 16.1474 20.2069C16.214 20.1816 16.2806 20.1564 16.3473 20.1314C16.4176 20.1044 16.4862 20.0759 16.5548 20.0449C16.8211 19.9306 17.2637 19.8684 17.5195 20.0389Z" fill="#F9FDFD" style="fill:#F9FDFD;fill:color(display-p3 0.9765 0.9922 0.9922);fill-opacity:1;"/>
<path d="M17.7539 20.2441C17.7687 20.3149 17.7833 20.3857 17.7978 20.4565C17.802 20.4765 17.8062 20.4965 17.8105 20.5171C17.8304 20.6146 17.8418 20.7007 17.8418 20.8008C17.6651 20.8301 17.4884 20.8593 17.3116 20.8884C17.2515 20.8983 17.1914 20.9083 17.1313 20.9182C17.0449 20.9326 16.9584 20.9468 16.8719 20.961C16.8451 20.9655 16.8183 20.97 16.7907 20.9746C16.7655 20.9787 16.7403 20.9828 16.7143 20.987C16.6922 20.9907 16.6702 20.9943 16.6475 20.9981C16.5763 21.0065 16.5072 21.0072 16.4355 21.0059C16.3753 20.8782 16.3753 20.8782 16.3823 20.7994C16.4062 20.7422 16.4062 20.7422 16.4583 20.7092C16.481 20.7006 16.5036 20.692 16.527 20.6832C16.5526 20.6732 16.5782 20.6632 16.6046 20.653C16.6464 20.6375 16.6464 20.6375 16.689 20.6218C16.7317 20.6055 16.7317 20.6055 16.7752 20.5888C16.8663 20.554 16.9576 20.52 17.0489 20.4858C17.1104 20.4624 17.1719 20.439 17.2334 20.4155C17.4583 20.33 17.4583 20.33 17.5708 20.288C17.5935 20.2795 17.6161 20.271 17.6395 20.2623C17.6953 20.2441 17.6953 20.2441 17.7539 20.2441Z" fill="#F9FDFD" style="fill:#F9FDFD;fill:color(display-p3 0.9765 0.9922 0.9922);fill-opacity:1;"/>
<path d="M12.5684 21.7676C12.665 22.0093 12.7617 22.251 12.8613 22.5C12.6583 22.587 12.6583 22.587 12.4512 22.6758C12.2864 22.511 12.2864 22.511 12.2135 22.4125C12.1981 22.3918 12.1827 22.3711 12.1668 22.3498C12.1513 22.3287 12.1358 22.3075 12.1198 22.2858C12.0956 22.2532 12.0956 22.2532 12.0709 22.22C12.0316 22.1669 11.9923 22.1138 11.9531 22.0605C12.0414 21.9652 12.144 21.9179 12.2607 21.8646C12.2806 21.8552 12.3004 21.8459 12.3208 21.8362C12.4082 21.7958 12.471 21.7676 12.5684 21.7676Z" fill="#FAFDFD" style="fill:#FAFDFD;fill:color(display-p3 0.9804 0.9922 0.9922);fill-opacity:1;"/>
<path d="M14.4726 19.4531C14.5136 19.4591 14.5545 19.466 14.5953 19.4733C14.6295 19.4789 14.6295 19.4789 14.6643 19.4846C14.8383 19.5501 14.9302 19.7212 15.0238 19.8724C15.0417 19.9008 15.0417 19.9008 15.0599 19.9297C15.0889 19.9758 15.1177 20.0221 15.1465 20.0684C15.048 20.1501 14.9408 20.2012 14.8242 20.2515C14.8062 20.2597 14.7881 20.2679 14.7695 20.2764C14.6372 20.3338 14.6372 20.3338 14.5585 20.3262C14.4845 20.2955 14.4717 20.2659 14.4382 20.194C14.4279 20.172 14.4175 20.1501 14.4069 20.1274C14.3966 20.1043 14.3862 20.0812 14.3756 20.0574C14.3647 20.0345 14.3538 20.0116 14.3426 19.988C14.2637 19.8164 14.2637 19.8164 14.2969 19.7168C14.321 19.7041 14.3452 19.6914 14.3701 19.6783C14.453 19.6342 14.453 19.6342 14.4671 19.5355C14.469 19.5083 14.4708 19.4811 14.4726 19.4531Z" fill="#FAFDFD" style="fill:#FAFDFD;fill:color(display-p3 0.9804 0.9922 0.9922);fill-opacity:1;"/>
<path d="M10.957 17.4902C10.9866 17.5126 11.0162 17.5349 11.0468 17.558C11.1675 17.6486 11.2893 17.7379 11.4111 17.8271C11.5632 17.9385 11.7148 18.0505 11.8652 18.1641C11.8226 18.2494 11.7667 18.2547 11.6785 18.2867C11.6498 18.2974 11.6212 18.3081 11.5917 18.3191C11.5137 18.3398 11.5137 18.3398 11.4258 18.3105C11.3822 18.2499 11.3822 18.2499 11.337 18.1708C11.3205 18.1424 11.304 18.1139 11.287 18.0846C11.2699 18.0546 11.2529 18.0246 11.2354 17.9938C11.2015 17.935 11.1677 17.8762 11.1337 17.8174C11.1188 17.7912 11.1039 17.765 11.0885 17.738C11.0465 17.6656 11.0465 17.6656 10.9954 17.6016C10.957 17.5488 10.957 17.5488 10.957 17.4902Z" fill="#F5FBFC" style="fill:#F5FBFC;fill:color(display-p3 0.9608 0.9843 0.9882);fill-opacity:1;"/>
<path d="M18.3106 20.0391C18.3977 20.2415 18.4397 20.463 18.4277 20.6836C18.3146 20.7257 18.2257 20.7455 18.1055 20.7422C18.0906 20.6726 18.076 20.6031 18.0615 20.5334C18.0573 20.514 18.0531 20.4945 18.0488 20.4744C18.0246 20.3566 18.0131 20.2471 18.0176 20.127C18.0554 20.1122 18.0932 20.0976 18.1311 20.083C18.1627 20.0708 18.1627 20.0708 18.195 20.0583C18.252 20.0391 18.252 20.0391 18.3106 20.0391Z" fill="#F7FCFD" style="fill:#F7FCFD;fill:color(display-p3 0.9686 0.9882 0.9922);fill-opacity:1;"/>
<path d="M12.9492 22.7344C13.0765 22.871 13.1405 23.0337 13.2129 23.2031C13.1752 23.2277 13.1373 23.2521 13.0994 23.2764C13.0783 23.29 13.0572 23.3036 13.0355 23.3176C12.9785 23.3496 12.9785 23.3496 12.9199 23.3496C12.8672 23.289 12.8182 23.2285 12.7698 23.1647C12.7492 23.1385 12.7492 23.1385 12.7282 23.1119C12.627 22.9797 12.627 22.9797 12.627 22.8809C12.7333 22.8325 12.8396 22.7842 12.9492 22.7344Z" fill="#F7FCFD" style="fill:#F7FCFD;fill:color(display-p3 0.9686 0.9882 0.9922);fill-opacity:1;"/>
<path d="M18.5156 20.9772C18.5892 21.2117 18.5892 21.2117 18.5742 21.3288C18.5329 21.3953 18.4928 21.4531 18.4442 21.5137C18.4319 21.5298 18.4196 21.5459 18.4068 21.5625C18.3757 21.6026 18.3433 21.6416 18.3105 21.6803C18.3009 21.6803 18.2912 21.6803 18.2813 21.6803C18.2616 21.5845 18.2421 21.4887 18.2227 21.3929C18.2171 21.3657 18.2115 21.3385 18.2057 21.3104C18.2004 21.2843 18.1951 21.2581 18.1897 21.2312C18.1823 21.195 18.1823 21.195 18.1748 21.1582C18.1641 21.0944 18.1641 21.0944 18.1641 21.0065C18.2828 20.9777 18.3937 20.9748 18.5156 20.9772Z" fill="#F7FCFD" style="fill:#F7FCFD;fill:color(display-p3 0.9686 0.9882 0.9922);fill-opacity:1;"/>
<path d="M7.44141 12.3633C7.51323 12.4351 7.53127 12.4958 7.56569 12.5914C7.57819 12.6257 7.59069 12.66 7.60357 12.6953C7.61652 12.7314 7.62948 12.7674 7.64282 12.8046C7.75508 13.1178 7.75508 13.1178 7.8898 13.4218C7.91016 13.4766 7.91016 13.4766 7.91016 13.5938C7.82597 13.6575 7.78229 13.6816 7.67578 13.6816C7.6594 13.6256 7.64365 13.5694 7.62817 13.5132C7.61934 13.4819 7.6105 13.4506 7.60139 13.4184C7.58655 13.3213 7.59709 13.2942 7.64648 13.2129C7.64041 13.1299 7.63631 13.0837 7.57349 13.0269C7.51593 12.9639 7.5122 12.9195 7.50149 12.8354C7.49781 12.8079 7.49412 12.7804 7.49033 12.7521C7.48687 12.7235 7.48342 12.6949 7.47986 12.6654C7.47606 12.6365 7.47227 12.6075 7.46836 12.5777C7.45904 12.5063 7.45007 12.4348 7.44141 12.3633Z" fill="#F4FBFC" style="fill:#F4FBFC;fill:color(display-p3 0.9569 0.9843 0.9882);fill-opacity:1;"/>
<path d="M18.6035 20.2441C18.7002 20.2441 18.7969 20.2441 18.8965 20.2441C18.921 20.3063 18.9454 20.3686 18.9697 20.4309C18.9833 20.4656 18.9969 20.5002 19.0109 20.536C19.043 20.625 19.043 20.625 19.043 20.6836C18.9366 20.6836 18.8303 20.6836 18.7207 20.6836C18.701 20.6269 18.6815 20.5701 18.6621 20.5133C18.6512 20.4817 18.6404 20.4501 18.6292 20.4175C18.6035 20.332 18.6035 20.332 18.6035 20.2441Z" fill="#F5FBFC" style="fill:#F5FBFC;fill:color(display-p3 0.9608 0.9843 0.9882);fill-opacity:1;"/>
<path d="M13.3341 23.4648C13.4111 23.5083 13.4328 23.5577 13.4711 23.6366C13.4839 23.6622 13.4968 23.6878 13.5101 23.7141C13.5372 23.7946 13.5421 23.8293 13.5059 23.9058C13.4769 23.9155 13.4479 23.9251 13.418 23.9351C13.3213 23.8191 13.2246 23.7031 13.125 23.5835C13.2715 23.4663 13.2715 23.4663 13.3341 23.4648Z" fill="#F3FBFC" style="fill:#F3FBFC;fill:color(display-p3 0.9529 0.9843 0.9882);fill-opacity:1;"/>
<path d="M15.2051 19.6582C15.2468 19.6667 15.2885 19.6751 15.3314 19.6838C15.494 19.7164 15.6571 19.7462 15.8203 19.7754C15.8203 19.7947 15.8203 19.8141 15.8203 19.834C15.685 19.8823 15.5496 19.9307 15.4102 19.9805C15.3425 19.8741 15.2748 19.7678 15.2051 19.6582Z" fill="#F3FAFB" style="fill:#F3FAFB;fill:color(display-p3 0.9529 0.9804 0.9843);fill-opacity:1;"/>
<path d="M7.44141 12.3633C7.50809 12.43 7.52511 12.4783 7.55699 12.5665C7.56738 12.5952 7.57776 12.6238 7.58846 12.6533C7.59915 12.6833 7.60984 12.7132 7.62085 12.7441C7.63176 12.7741 7.64268 12.8041 7.65392 12.835C7.73438 13.0584 7.73438 13.0584 7.73438 13.125C7.64648 13.125 7.64648 13.125 7.5856 13.0716C7.50592 12.9399 7.49528 12.8129 7.47803 12.6617C7.47253 12.6187 7.47253 12.6187 7.46693 12.5748C7.45799 12.5044 7.4495 12.4339 7.44141 12.3633Z" fill="#E5F6F7" style="fill:#E5F6F7;fill:color(display-p3 0.8980 0.9647 0.9686);fill-opacity:1;"/>
<path d="M14.0332 19.2773C14.1782 19.3354 14.1782 19.3354 14.3262 19.3945C14.209 19.4824 14.209 19.4824 14.1211 19.5117C14.0332 19.3433 14.0332 19.3433 14.0332 19.2773Z" fill="#ECF8FA" style="fill:#ECF8FA;fill:color(display-p3 0.9255 0.9725 0.9804);fill-opacity:1;"/>
</g>
<defs>
<clipPath id="clip0_839_4773">
<rect width="30" height="30" rx="15" fill="white" style="fill:white;fill-opacity:1;"/>
</clipPath>
</defs>
</svg>
