<svg width="30" height="30" viewBox="0 0 30 30" fill="none" xmlns="http://www.w3.org/2000/svg">
<g clip-path="url(#clip0_839_4747)">
<rect width="30" height="30" rx="15" fill="white" style="fill:white;fill-opacity:1;"/>
<path d="M2.87426 21.7277C2.47801 21.7897 2.08653 21.89 1.70938 22.0285C-0.820895 17.1779 -0.524901 11.3392 2.48278 6.77032C5.4857 2.20625 10.7277 -0.371783 16.1701 0.0435667C21.6174 0.458915 26.4058 3.80081 28.6831 8.77068L28.3632 8.80888L19.2733 7.13793C19.2065 7.12838 19.1444 7.14748 19.1014 7.19522C19.0585 7.24296 19.0442 7.3098 19.0632 7.37186L19.5454 9.04281C19.5645 9.12397 19.6361 9.17648 19.7173 9.17648L24.9211 9.20513L23.9663 9.31493L19.4452 10.0692C17.6358 10.4846 15.8073 10.8045 13.9597 11.0241C14.0313 10.919 14.0886 10.814 14.1364 10.6994C14.2605 10.6039 14.4228 10.5037 14.6138 10.3796C15.1962 10.2411 15.2869 9.85919 15.2869 9.64912V9.53454C15.2774 9.377 15.2153 9.229 15.1151 9.11442L15.0816 9.07145C15.0482 9.02849 14.9909 8.99984 14.9336 8.99984H14.8764C14.6377 9.00461 14.3989 9.04758 14.1746 9.12874L13.9263 9.2481C13.7592 9.01416 13.3582 8.86139 12.623 8.74204H12.5609C11.9594 8.78023 11.3722 8.90436 10.804 9.11442C9.7442 9.41519 8.72254 9.83532 7.75817 10.37C5.4857 11.7115 4.38765 12.9337 4.38765 14.0986C4.3972 14.4471 4.507 14.7861 4.70274 15.0725C5.01783 15.5929 5.66234 15.9939 6.69832 16.2947C7.61017 16.4714 8.51725 16.6194 9.38614 16.7483C10.3553 16.9631 10.8948 17.3164 10.9902 17.789C10.9759 17.8129 10.9711 17.8415 10.9711 17.8654V17.9895C10.9711 18.0611 10.9329 18.2808 10.5701 18.6866C10.1452 19.1258 9.63439 19.4838 9.07582 19.7416L7.8823 20.305C6.25433 20.9161 4.57862 21.3887 2.87426 21.7277ZM29.0029 9.53454C28.5924 9.76848 28.1436 9.93557 27.6805 10.0311H27.6423C27.0742 10.1074 26.5013 10.1886 25.9284 10.2745L20.3666 11.9264C19.7794 13.2106 19.2733 14.366 18.8627 15.359L18.8293 15.4211C18.7959 15.4736 18.6479 15.7696 17.7981 17.8654C17.5499 18.3906 17.3541 18.8346 17.2204 19.2022C17.1918 19.2833 17.082 19.5411 16.5616 20.7251L15.7262 22.6682C15.7214 22.6825 15.7118 22.6968 15.7071 22.7064C15.3299 23.2029 15.1437 23.2888 14.9909 23.3079H14.948C14.9241 23.3127 14.8955 23.3127 14.8716 23.3079C14.6233 23.2077 14.5088 23.0835 14.5088 22.9117C14.5088 22.4008 14.9241 21.2407 15.8025 19.2213C16.681 17.2018 17.6692 14.7383 18.7816 11.9789V11.9455C18.8627 11.8118 18.9296 11.6686 18.9916 11.5254C16.7192 11.9455 15.3585 12.1937 14.9241 12.2319L14.2032 12.337C14.1507 12.3417 14.103 12.3322 14.0552 12.3131L13.764 12.337C13.5062 12.3417 13.2484 12.294 13.0145 12.1937C12.6898 12.5327 12.2983 12.9003 11.8353 13.3109C11.1191 13.8456 10.8566 13.9124 10.6895 13.9124H10.6179C10.1404 13.8551 9.86355 13.583 9.86355 13.1772C9.86355 12.9862 9.97336 12.8573 10.6704 12.4324C11.2671 11.9646 11.8305 11.4394 12.3365 10.8713C12.4177 10.5753 12.5657 10.2984 12.7758 10.074C12.7471 10.0788 12.7137 10.0788 12.685 10.074C11.4486 10.222 10.2455 10.5849 9.13789 11.153C8.38835 11.511 7.68179 11.9503 7.02296 12.4611C6.48826 12.8908 6.06336 13.435 5.77214 14.0556C5.73395 14.2036 5.7244 14.2609 5.71963 14.2848C5.71963 14.7002 6.5551 15.0582 7.97778 15.2492C10.2407 15.5977 10.785 15.8841 10.9998 16.0656C11.587 16.4141 12.031 16.9583 12.2506 17.6076V18.2664C12.2506 20.0185 9.6153 21.446 3.95798 22.7446L2.56872 23.0119H2.53053C2.48756 23.0215 2.44937 23.0215 2.41117 23.0119H2.28227C6.42142 29.5429 14.8238 31.8679 21.7224 28.3924C28.621 24.9168 31.7671 16.7674 28.9982 9.54887L29.0029 9.53454Z" fill="#1882FF" style="fill:#1882FF;fill:color(display-p3 0.0941 0.5098 1.0000);fill-opacity:1;"/>
</g>
<defs>
<clipPath id="clip0_839_4747">
<rect width="30" height="30" rx="15" fill="white" style="fill:white;fill-opacity:1;"/>
</clipPath>
</defs>
</svg>
